<svg width="816" height="195" viewBox="0 0 816 195" fill="none" xmlns="http://www.w3.org/2000/svg">
<g clip-path="url(#clip0_14914_933)">
<path d="M279.754 70.3113C287.211 72.9525 293.265 76.9991 297.908 82.4418C302.551 87.8844 305.696 93.827 307.354 100.27C309.012 106.703 309.259 113.353 308.103 120.201C306.937 127.049 304.37 133.284 300.39 138.896C296.411 144.509 291.02 149.084 284.226 152.64C277.423 156.187 269.303 157.96 259.857 157.96H199.18C197.02 157.96 195.949 156.97 195.949 154.989V3.21646C195.949 1.07524 197.029 -9.15527e-05 199.18 -9.15527e-05H247.426C259.364 -9.15527e-05 268.896 2.60334 276.021 7.80076C283.146 12.9982 288.045 19.3181 290.698 26.7416C293.351 34.1652 293.72 41.8906 291.816 49.8895C289.911 57.8979 285.884 64.7083 279.754 70.3113ZM221.313 60.1617C221.313 61.1521 221.891 61.6521 223.057 61.6521H247.426C251.567 61.6521 254.968 60.7465 257.621 58.926C260.274 57.1149 262.178 54.8794 263.344 52.2382C264.5 49.5971 265.04 46.7107 264.964 43.5696C264.879 40.4379 264.13 37.5421 262.728 34.9009C261.316 32.2598 259.326 30.0336 256.759 28.2131C254.191 26.4021 251.074 25.4871 247.435 25.4871H223.066C221.901 25.4871 221.323 25.987 221.323 26.9774V60.1523L221.313 60.1617ZM259.866 132.699C264.178 132.699 267.74 131.586 270.564 129.36C273.378 127.134 275.491 124.323 276.902 120.946C278.305 117.569 279.015 113.89 279.015 109.929C279.015 105.967 278.305 102.298 276.902 98.9113C275.491 95.5344 273.378 92.7234 270.564 90.4973C267.74 88.2712 264.178 87.1581 259.866 87.1581H223.057C221.891 87.1581 221.313 87.658 221.313 88.6485V130.982C221.313 132.143 221.891 132.718 223.057 132.718H259.866V132.699Z" fill="#E4B63D"/>
<path d="M373.509 42.0883C384.452 42.0883 393.899 44.3994 401.858 49.0214C409.816 53.6434 416.24 59.4162 421.129 66.3493C426.018 73.2823 429.373 80.7907 431.201 88.8746C433.02 96.9678 433.191 104.476 431.694 111.4C431.362 113.051 430.282 113.871 428.463 113.871H344.402C343.909 113.871 343.739 114.117 343.909 114.616C346.231 120.059 349.831 124.681 354.73 128.483C359.619 132.284 365.796 134.18 373.253 134.18C379.052 134.18 384.727 133.029 390.289 130.718C395.841 128.407 400.361 125.606 403.838 122.304C405.335 120.814 406.822 120.814 408.31 122.304L421.992 135.925C423.479 137.415 423.479 138.896 421.992 140.377C415.53 146.98 408.102 151.895 399.735 155.111C391.359 158.328 382.861 159.941 374.248 159.941C366.791 159.941 359.486 158.705 352.361 156.224C345.226 153.753 338.888 150.036 333.336 145.084C327.783 140.132 323.349 133.944 320.033 126.511C316.717 119.088 315.059 110.504 315.059 100.76C315.059 93.4966 316.423 86.3655 319.161 79.3475C321.899 72.3296 325.794 66.0663 330.853 60.5293C335.913 55.0017 342.043 50.5495 349.253 47.1631C356.464 43.7862 364.546 42.0883 373.499 42.0883H373.509ZM406.093 92.5911C404.264 85.3279 400.37 79.3098 394.401 74.518C388.432 69.7356 381.468 67.3397 373.509 67.3397C364.224 67.3397 356.975 69.7733 351.745 74.6406C346.525 79.5079 343.246 85.3279 341.92 92.0911C341.92 92.4213 342.081 92.5816 342.412 92.5816H406.074L406.093 92.5911Z" fill="#E4B63D"/>
<path d="M465.007 -0.000335693C466.996 -0.000335693 467.991 1.07499 467.991 3.21622V154.988C467.991 156.969 466.996 157.96 465.007 157.96H445.858C443.698 157.96 442.627 156.969 442.627 154.988V3.21622C442.627 1.07499 443.707 -0.000335693 445.858 -0.000335693H465.007Z" fill="#E4B63D"/>
<path d="M537.382 42.0883C545.502 42.0883 553.13 43.6164 560.264 46.6726C567.389 49.7288 573.652 53.9358 579.043 59.303C584.425 64.6702 588.66 70.8958 591.73 77.9987C594.8 85.1015 596.335 92.6948 596.335 100.779C596.335 108.862 594.8 116.503 591.73 123.681C588.66 130.86 584.434 137.132 579.043 142.5C573.652 147.857 567.399 152.074 560.264 155.13C553.13 158.186 545.502 159.714 537.382 159.714C529.262 159.714 521.588 158.186 514.377 155.13C507.167 152.074 500.866 147.867 495.475 142.5C490.084 137.142 485.858 130.86 482.788 123.681C479.719 116.503 478.184 108.872 478.184 100.779C478.184 92.6854 479.719 85.1015 482.788 77.9987C485.858 70.9053 490.084 64.6702 495.475 59.303C500.857 53.9453 507.167 49.7288 514.377 46.6726C521.588 43.6164 529.253 42.0883 537.382 42.0883ZM537.382 134.435C542.025 134.435 546.374 133.567 550.439 131.831C554.503 130.096 558.066 127.709 561.136 124.653C564.206 121.597 566.603 118.012 568.346 113.881C570.09 109.759 570.961 105.382 570.961 100.76C570.961 96.1378 570.09 91.8082 568.346 87.7615C566.603 83.7149 564.196 80.1682 561.136 77.112C558.066 74.0558 554.503 71.6693 550.439 69.9337C546.374 68.1981 542.025 67.3303 537.382 67.3303C532.74 67.3303 528.343 68.1981 524.203 69.9337C520.053 71.6693 516.452 74.0652 513.383 77.112C510.313 80.1682 507.916 83.7149 506.172 87.7615C504.429 91.8082 503.557 96.1378 503.557 100.76C503.557 105.382 504.429 109.759 506.172 113.881C507.916 118.012 510.313 121.597 513.383 124.653C516.452 127.709 520.053 130.096 524.203 131.831C528.343 133.567 532.74 134.435 537.382 134.435Z" fill="#E4B63D"/>
<path d="M629.645 55.4545C633.454 51.0023 637.936 47.6536 643.071 45.4275C648.207 43.2014 653.513 42.0883 658.989 42.0883C663.963 42.0883 668.89 43.0788 673.789 45.0597C678.678 47.0405 683.027 50.0118 686.845 53.9736C690.654 57.9353 693.724 62.8497 696.045 68.7074C698.366 74.5652 699.522 81.4605 699.522 89.384V154.998C699.522 156.979 698.442 157.969 696.291 157.969H677.143C674.982 157.969 673.912 156.979 673.912 154.998V89.384C673.912 81.9604 671.628 76.3857 667.071 72.6692C662.514 68.9527 657.407 67.0945 651.779 67.0945C649.126 67.0945 646.473 67.5472 643.82 68.4528C641.167 69.3583 638.76 70.7638 636.609 72.6598C634.449 74.5557 632.753 76.8667 631.512 79.5928C630.271 82.3188 629.645 85.5731 629.645 89.3745V154.988C629.645 156.969 628.651 157.96 626.661 157.96H607.512C605.352 157.96 604.281 156.969 604.281 154.988V46.7953C604.281 44.654 605.361 43.5787 607.512 43.5787H626.661C628.651 43.5787 629.645 44.654 629.645 46.7953V55.4639V55.4545Z" fill="#E4B63D"/>
<path d="M815.154 168.6C815.315 169.59 815.069 170.411 814.405 171.071C813.742 171.732 812.994 172.062 812.169 172.062H793.769C792.111 172.062 791.116 171.317 790.785 169.836C790.453 168.515 789.913 167.44 789.164 166.619C788.416 165.789 787.715 165.214 787.051 164.883C785.062 163.893 783.404 163.393 782.077 163.393C779.595 163.393 777.681 164.299 776.354 166.119C775.028 167.93 774.194 169.581 773.872 171.071C773.209 173.543 772.005 176.099 770.262 178.75C768.519 181.391 766.283 183.862 763.544 186.173C760.806 188.484 757.66 190.38 754.098 191.87C750.526 193.351 746.594 194.097 742.283 194.097C735.319 194.097 729.103 192.201 723.627 188.399C718.16 184.598 714.256 179.9 711.935 174.288C710.447 170.486 709.614 166.402 709.453 162.035C709.282 157.658 709.993 153.451 711.565 149.404C713.138 145.358 715.668 141.566 719.155 138.019C722.632 134.472 727.36 131.624 733.329 129.473C726.697 125.021 721.429 119.239 717.535 112.145C713.64 105.052 711.774 97.2132 711.935 88.6295C712.096 82.3567 713.432 76.4141 715.914 70.8016C718.397 65.1892 721.76 60.2747 725.986 56.0678C730.212 51.8608 735.148 48.5122 740.786 46.0408C746.423 43.5694 752.393 42.2488 758.693 42.0791C764.492 41.7489 769.883 42.4941 774.857 44.3052C775.35 44.8051 775.606 44.6353 775.606 43.8147C776.43 39.0323 778.221 34.6932 780.95 30.8164C783.688 26.9396 788.198 23.6758 794.499 21.0347C795.986 20.3744 797.152 20.6196 797.976 21.7799L809.914 33.4198C810.739 34.4103 810.994 35.4856 810.663 36.6364C810.331 37.7966 809.497 38.5324 808.18 38.8625C806.02 39.1926 803.992 40.0605 802.088 41.4659C800.184 42.8714 798.563 44.3995 797.237 46.0502C795.91 47.7009 794.878 49.3517 794.129 51.0024C793.381 52.6531 792.926 53.8888 792.765 54.7189L793.011 55.2188C797.654 59.5107 801.254 64.5855 803.831 70.4432C806.399 76.3009 807.688 82.6963 807.688 89.6293C807.688 96.5624 806.446 102.42 803.955 108.202C801.472 113.985 798.071 119.059 793.76 123.427C789.449 127.803 784.389 131.228 778.59 133.699C772.782 136.17 766.567 137.415 759.934 137.415C754.79 137.415 750.526 138.245 747.124 139.887C743.723 141.538 741.032 143.603 739.042 146.075C737.053 148.546 735.641 151.149 734.817 153.875C733.983 156.602 733.575 159.035 733.575 161.176C733.575 162.667 734.068 164.478 735.073 166.619C736.067 168.76 738.464 169.836 742.283 169.836C744.273 169.836 744.273 169.836 742.283 169.836C744.273 169.836 745.845 169.421 747.011 168.6C748.167 167.77 749.086 166.742 749.749 165.506C750.412 164.27 750.952 162.95 751.369 161.544C751.777 160.139 752.241 158.941 752.734 157.95C754.06 155.639 755.595 153.366 757.338 151.14C759.082 148.914 761.109 146.933 763.431 145.197C765.752 143.462 768.49 142.066 771.636 140.99C774.782 139.915 778.354 139.377 782.333 139.377C786.805 139.377 790.955 140.123 794.764 141.604C798.573 143.094 801.889 145.15 804.713 147.791C807.527 150.433 809.848 153.526 811.677 157.073C813.496 160.62 814.661 164.459 815.154 168.591V168.6ZM759.944 67.3398C753.643 67.3398 748.337 69.4905 744.026 73.7729C739.715 78.0648 737.564 83.3471 737.564 89.6199C737.564 95.8926 739.715 101.175 744.026 105.467C748.337 109.759 753.643 111.909 759.944 111.909C766.245 111.909 771.551 109.768 775.862 105.467C780.173 101.175 782.324 95.8926 782.324 89.6199C782.324 83.3471 780.163 78.0648 775.862 73.7729C771.551 69.4811 766.245 67.3398 759.944 67.3398Z" fill="#E4B63D"/>
</g>
<g clip-path="url(#clip1_14914_933)">
<path d="M70.827 102.735L70.6486 102.646L70.4582 102.735L5.03847 133.769C1.91022 135.247 -0.05832 138.417 -0.00479473 141.865C0.0963085 148.281 6.81076 152.447 12.6212 149.693L66.8542 123.971C69.2509 122.831 72.0402 122.831 74.437 123.971L128.658 149.693C134.469 152.447 141.183 148.287 141.284 141.871C141.338 138.417 139.369 135.253 136.247 133.775L70.827 102.741V102.735Z" fill="#4B0D67"/>
<path d="M70.827 57.3442L70.6486 57.4332L70.4582 57.3442L5.03847 26.3096C1.91022 24.8258 -0.05832 21.6624 -0.00479473 18.2082C0.0963085 11.7924 6.81076 7.62593 12.6212 10.3857L66.8542 36.1084C69.2509 37.248 72.0402 37.248 74.437 36.1084L128.658 10.3857C134.469 7.63187 141.183 11.7924 141.284 18.2082C141.338 21.6624 139.369 24.8258 136.247 26.3037L70.827 57.3383V57.3442Z" fill="#4B0D67"/>
<path d="M141.284 50.5774C141.183 44.1616 134.469 39.9952 128.658 42.755L74.437 68.4777C72.0402 69.6172 69.2509 69.6172 66.8542 68.4777L12.6212 42.7491C6.81076 39.9952 0.0963086 44.1557 -0.00479472 50.5774C-0.05832 54.0317 1.91022 57.1951 5.03253 58.6788L33.282 72.0803C40.0024 75.2674 40.0024 84.817 33.282 88.0042L5.03253 101.406C1.91022 102.883 -0.05832 106.047 -0.00479472 109.501C0.0963086 115.917 6.81076 120.083 12.6212 117.329L66.8542 91.6067C69.2509 90.4672 72.0402 90.4672 74.437 91.6067L128.658 117.329C134.469 120.083 141.183 115.923 141.284 109.507C141.338 106.053 139.369 102.889 136.247 101.412L107.997 88.0101C101.277 84.8229 101.277 75.2734 107.997 72.0862L136.247 58.6848C139.369 57.201 141.338 54.0376 141.284 50.5893V50.5774Z" fill="#4B0D67"/>
</g>
<defs>
<clipPath id="clip0_14914_933">
<rect width="619.266" height="194.106" fill="white" transform="translate(195.936)"/>
</clipPath>
<clipPath id="clip1_14914_933">
<rect width="141.289" height="141.036" fill="white" transform="translate(0 9.51837)"/>
</clipPath>
</defs>
</svg>
